# xmcd
#
# Track frame offsets: 
#        150
#        18266
#        38451
#        63087
#        84658
#        107336
#        127827
#        146960
#        176653
#        195033
#
# Disc length: 2887 seconds
#
# Revision: 0
# Processed by: cddbd v1.5.2PL0 Copyright (c) Steve Scherf et al.
# Submitted via: ExactAudioCopy v1.3
#
DISCID=700b450a
DTITLE=Blues Cousins - I Was Born In Georgia
DYEAR=2017
DGENRE=Electric Blues
TTITLE0=Are You Feeling
TTITLE1=Too Late
TTITLE2=I Was Born In Georgia
TTITLE3=Let It Go Away
TTITLE4=Take My Hand
TTITLE5=It's Gonna Be You
TTITLE6=Lose You
TTITLE7=Open The Door
TTITLE8=Sweet Lady
TTITLE9=The Trouble
EXTD=
EXTT0=
EXTT1=
EXTT2=
EXTT3=
EXTT4=
EXTT5=
EXTT6=
EXTT7=
EXTT8=
EXTT9=
PLAYORDER=
